<?xml version="1.0" standalone="no"?>
<!DOCTYPE svg PUBLIC "-//W3C//DTD SVG 20010904//EN"
 "http://www.w3.org/TR/2001/REC-SVG-20010904/DTD/svg10.dtd">
<svg version="1.0" xmlns="http://www.w3.org/2000/svg"
 width="120.000000pt" height="120.000000pt" viewBox="0 0 120.000000 120.000000"
 preserveAspectRatio="xMidYMid meet">
<metadata>
Created by potrace 1.11, written by Peter Selinger 2001-2013
</metadata>
<g transform="translate(0.000000,120.000000) scale(0.100000,-0.100000)"
fill="#000000" stroke="none">
<path d="M485 1179 c-29 -31 -25 -137 5 -161 29 -24 65 -23 90 2 34 34 25 147
-14 172 -21 14 -63 8 -81 -13z"/>
<path d="M125 1046 c-37 -37 -32 -62 23 -117 36 -36 54 -47 71 -44 52 10 78
56 54 95 -18 29 -71 80 -83 80 -5 0 -15 3 -24 6 -9 3 -26 -5 -41 -20z"/>
<path d="M874 1060 c-30 -12 -94 -90 -90 -109 9 -44 25 -58 75 -67 20 -4 100
77 105 106 4 29 -9 51 -41 68 -25 14 -21 13 -49 2z"/>
<path d="M455 956 c-54 -17 -82 -33 -123 -70 -88 -80 -119 -201 -81 -314 l19
-54 -33 -40 c-27 -34 -32 -48 -32 -94 l0 -54 -38 0 c-147 0 -220 -174 -117
-280 48 -49 71 -51 530 -48 l425 3 50 26 c59 31 118 103 135 166 47 165 -87
338 -258 334 -29 0 -58 -3 -62 -6 -12 -7 -41 37 -41 62 -1 10 0 38 1 63 4 97
-27 171 -97 237 -71 66 -190 96 -278 69z"/>
<path d="M40 724 c-35 -15 -45 -34 -36 -68 12 -47 34 -58 104 -54 48 3 68 9
78 23 19 26 18 58 -3 84 -22 27 -97 34 -143 15z"/>
<path d="M924 732 c-53 -8 -75 -81 -34 -114 30 -24 132 -23 155 2 25 28 27 64
4 88 -11 12 -25 22 -32 23 -38 3 -75 4 -93 1z"/>
</g>
</svg>
